inDegrees=no
num_controls=7
num_derivatives=13
num_iterations=100
num_multipliers=7
num_parameters=0
num_slacks=7
num_states=26
objective=5.658711
objective_accelerations=0.204738
objective_balance=0.060692
objective_effort=0.341949
objective_height=4.963126
objective_ligament=0.088205
solver_duration=868.253517
status=Solve_Succeeded
success=true
DataType=double
version=3
OpenSimVersion=4.4-2022-07-23-0e9fedc
endheader
time	/jointset/ground_pelvis/pelvis_tilt/value	/jointset/ground_pelvis/pelvis_tx/value	/jointset/ground_pelvis/pelvis_ty/value	/jointset/hip_r/hip_flexion_r/value	/jointset/hip_r/hip_adduction_r/value	/jointset/hip_r/hip_rotation_r/value	/jointset/back/lumbar_extension/value	/jointset/patellofemoral_r/patellar_flexion_r/value	/jointset/knee_r/knee_flexion_r/value	/jointset/knee_r/knee_adduction_r/value	/jointset/knee_r/knee_rotation_r/value	/jointset/ankle_r/ankle_angle_r/value	/jointset/subtalar_r/subtalar_angle_r/value	/jointset/ground_pelvis/pelvis_tilt/speed	/jointset/ground_pelvis/pelvis_tx/speed	/jointset/ground_pelvis/pelvis_ty/speed	/jointset/hip_r/hip_flexion_r/speed	/jointset/hip_r/hip_adduction_r/speed	/jointset/hip_r/hip_rotation_r/speed	/jointset/back/lumbar_extension/speed	/jointset/patellofemoral_r/patellar_flexion_r/speed	/jointset/knee_r/knee_flexion_r/speed	/jointset/knee_r/knee_adduction_r/speed	/jointset/knee_r/knee_rotation_r/speed	/jointset/ankle_r/ankle_angle_r/speed	/jointset/subtalar_r/subtalar_angle_r/speed	/forceset/tau_hip_flexion_r	/forceset/tau_hip_adduction_r	/forceset/tau_hip_rotation_r	/forceset/tau_knee_flexion_r	/forceset/tau_ankle_angle_r	/forceset/tau_subtalar_angle_r	/forceset/tau_lumbar_extension	lambda_cid13_p0	lambda_cid14_p0	lambda_cid14_p1	lambda_cid14_p2	lambda_cid14_p3	lambda_cid14_p4	lambda_cid14_p5	/jointset/ground_pelvis/pelvis_tilt/accel	/jointset/ground_pelvis/pelvis_tx/accel	/jointset/ground_pelvis/pelvis_ty/accel	/jointset/hip_r/hip_flexion_r/accel	/jointset/hip_r/hip_adduction_r/accel	/jointset/hip_r/hip_rotation_r/accel	/jointset/back/lumbar_extension/accel	/jointset/patellofemoral_r/patellar_flexion_r/accel	/jointset/knee_r/knee_flexion_r/accel	/jointset/knee_r/knee_adduction_r/accel	/jointset/knee_r/knee_rotation_r/accel	/jointset/ankle_r/ankle_angle_r/accel	/jointset/subtalar_r/subtalar_angle_r/accel	gamma_cid13_p0	gamma_cid14_p0	gamma_cid14_p1	gamma_cid14_p2	gamma_cid14_p3	gamma_cid14_p4	gamma_cid14_p5
0.5	0.003715122953448839	0.1040046158135352	0.9038619034487084	0.4156793799485323	-0.2253718826866286	-0.1687306477539353	-0.2902424966432752	0.5192876154098307	0.5192876154099805	0.05854993577195573	0.1745139039681579	0.2661689360396942	0.06441358285394157	0.01733885036203563	0.01216679623025635	-0.1666489448108159	0.6689924481057811	-0.006073966279568016	0.1856877546501959	-0.6075079007055534	1.215165129323823	1.215165129323584	-0.241425122306568	4.025002645384701e-05	0.6063162567044172	0.1720343689400835	-0.005913775711600344	-0.007929625500542988	0.001743358068656786	-0.2959490052573977	0.009542241968800338	-0.01835149321895547	0.08686957033843511	-39.82148587560815	-40.09514390848598	-10.66987067692767	-2.774072139663562	11.22274924601341	-681.2063248795694	52.11698879123986	-0.1108753992878839	-0.009141021890966631	-0.2056919594996474	-0.3239586603932433	-0.07469027585088198	-0.4182009462121072	0.8133288776738414	-0.8028712684468476	-0.8028712684468507	0.3361212543867682	-0.00959533871710235	-0.4835227468858612	-0.08968636580324083	-7.876607565043659e-08	-5.381988387091653e-08	7.466020423545205e-07	-6.312986107051418e-07	-4.708966771699504e-08	-3.982386943747529e-08	8.749062714560153e-07
0.51	0.00388257793757155	0.1041258709985231	0.9021854448759136	0.4223524020741236	-0.2254368206784576	-0.1668947344003546	-0.2962756288313664	0.5313973730264367	0.5313973730263725	0.05615370219555848	0.1745143437946257	0.2722069676293966	0.06612850002085331	0.01614398057417027	0.0120881762554039	-0.1686032112070951	0.6655084581850143	-0.006908528342995332	0.181484838284979	-0.5990264223923978	1.206595493370088	1.206595493369939	-0.2378060116628579	4.654218412102496e-05	0.6012057711860299	0.17092628210077	-0.00912075379334399	-0.006090973604254013	0.002153709497630676	-0.2977836372155504	0.004318910038226776	-0.01742833544980302	0.09016287207366143	-39.40587566376556	-41.80785997553451	-10.64827949347649	-2.686760858788876	11.81668023941964	-682.9153368878965	51.92080206180648	-0.1250229823403183	-0.00664123247971685	-0.1843668489959277	-0.3761522041745852	-0.08712082871167535	-0.4229550327847555	0.8793744861697801	-0.9126298053080095	-0.912629805294379	0.3771962103408936	0.005470655064695476	-0.5374695232318112	-0.124748597943834	-7.252452101702031e-08	-4.972979817839408e-08	6.805001554586641e-07	-6.025213035438655e-07	-4.346380014187323e-08	-3.064611858197768e-08	8.20443637023161e-07
0.52	0.004037838181072496	0.1042464562343233	0.9004906290652943	0.4289874776912477	-0.2255099606223291	-0.1651011738206542	-0.3022211828007235	0.5434157102742646	0.5434157102738936	0.05379413777384696	0.1745147923750065	0.278191362750132	0.06783166056838472	0.0148999022340784	0.01203280639274292	-0.1703203923756664	0.6614031464139795	-0.007714356691376979	0.1772171998754442	-0.5899922569579432	1.196881055557509	1.196881055557451	-0.2340912913800655	4.200082404006762e-05	0.5955889629109808	0.1696830450635274	-0.01232773187525923	-0.004252321707887703	0.002564060926078014	-0.2996182691737344	-0.0009044218923284485	-0.01650517768053159	0.09345617380872885	-38.96705445152899	-43.52949183777631	-10.62450192542079	-2.604078949562902	12.41421417980934	-684.7695348542029	51.77789883889768	-0.1207171097334275	-0.004490999452533674	-0.1582749139580473	-0.4482230304468708	-0.06894353284176589	-0.4311453550757327	0.9238663019336395	-1.03183164021571	-1.031831640215735	0.3552431822032777	-0.01176204226672341	-0.5847872982181529	-0.1167164053890724	-6.702722663352016e-08	-4.671717355647308e-08	6.219937411249177e-07	-5.780941955397914e-07	-3.964478839971679e-08	-2.537994720567236e-08	7.720234160739814e-07
0.53	0.004180400203488685	0.1043665939079302	0.8987798425510928	0.4355785038360224	-0.2255909462550736	-0.1633505953280843	-0.3080736896264184	0.5553313140336379	0.5553313140337131	0.05147203105443554	0.1745151151783492	0.2841171350351573	0.06952180283874544	0.01360478373972127	0.0119978627816223	-0.1717954352986364	0.6567044357044748	-0.008474915414521882	0.172878895994734	-0.5804239891151762	1.18605881626223	1.186058816262225	-0.2303264792789828	3.013258299039499e-05	0.5894862993574553	0.1683265820295411	-0.01541687916996915	-0.002568303817071121	0.002973452511093074	-0.301539496909126	-0.005878262497016945	-0.01565838739425664	0.09665518528959731	-38.50699715475132	-45.17148190767922	-10.62357505001865	-2.513608522830325	12.96925953842509	-686.557453122887	51.61962322563865	-0.1350719765474462	-0.002533401427549489	-0.1359022292832544	-0.4953469253817494	-0.07848490182662206	-0.438207723723156	0.9860748853231333	-1.134539256016997	-1.134539256009122	0.3876769826650519	0.005149978045494981	-0.6348969070073597	-0.1479094897454701	-6.134377276593787e-08	-4.367813776533241e-08	5.608023963442645e-07	-5.51846782053448e-07	-3.554961586883719e-08	-2.065844853964724e-08	7.207393551527677e-07
0.54	0.004309778489522635	0.1044864746735292	0.8970555489580975	0.4421196125068612	-0.2256793120469957	-0.1616440068381561	-0.3138279602017132	0.5671332715637534	0.5671332715641721	0.04918768780779607	0.1745155291378117	0.2899795024800302	0.0711978208312998	0.01226315495490135	0.01198142479116441	-0.1730218081343967	0.6514196516277777	-0.009190388528719664	0.1684191993478562	-0.5703450068774489	1.17415180969363	1.174151809693677	-0.2265385968337527	6.023206473417599e-05	0.5829079948804295	0.1668581895018789	-0.01850602646479701	-0.0008842859261990125	0.003382844095490834	-0.3034607246445353	-0.01085210310169134	-0.01481159710788949	0.09985419677035721	-38.02784994640638	-46.82278802932804	-10.6207343970811	-2.427492719954787	13.52955842916839	-688.4951502484467	51.51209520866514	-0.1300191678262048	-0.0007898753198696993	-0.1085408965160944	-0.5654377038853857	-0.05992641105235308	-0.4554239083093091	1.026009180925685	-1.248785094880227	-1.248785094880224	0.3598572510327797	-0.003368497708016609	-0.6799154829181241	-0.1391023041242625	-5.545435521383918e-08	-4.060988110611892e-08	4.966404902180972e-07	-5.235854135654453e-07	-3.114890374192345e-08	-1.65395664892513e-08	6.662867904327074e-07
0.55	0.004425529969290144	0.1046062822456609	0.8953202454865639	0.4486049984377666	-0.2257746094557488	-0.1599822406477736	-0.3194789863253822	0.578810869249768	0.5788108692500786	0.04694147565503144	0.1745161708869291	0.2957737806663582	0.07285858318583033	0.01088276030090914	0.01198329752295345	-0.1739961089093162	0.6455611807677256	-0.009866066465158998	0.163941654495907	-0.5597856705448654	1.161197718156435	1.161197718156666	-0.2226798568329906	6.077532951812481e-05	0.5758732030735587	0.1652681523398806	-0.02143843903114531	0.000625449968582505	0.003799999320052561	-0.3055146609633546	-0.01546062181973097	-0.0140554169143445	0.1029231035993864	-37.53174333255446	-48.35491531632521	-10.64179446266552	-2.331379777162939	14.01380246789504	-690.3208260257973	51.3848250631307	-0.142711279089572	0.001151281217169315	-0.08546093704699635	-0.6105092243440884	-0.07098862321533682	-0.4428583370852728	1.082077956154828	-1.34421213719247	-1.344212137164834	0.4025061345934984	0.0005863996523456068	-0.7264356484115431	-0.1728616237742725	-5.047670013285592e-08	-3.739432894925639e-08	4.443919648150363e-07	-4.937708109218448e-07	-2.795531466622884e-08	-1.164621592451693e-08	6.161370316104751e-07
0.5600000000000001	0.004527345169547991	0.104726203631869	0.8935764817534667	0.4550289081706054	-0.2258765836715073	-0.1583650376186093	-0.3250221826663812	0.5903538278295263	0.5903538278297931	0.04473457565422397	0.1745165822011116	0.3014954760108541	0.07450266372843443	0.009475899050768831	0.01200418760644252	-0.1747138604470563	0.6391244120165389	-0.01052574993257691	0.1595065671060256	-0.5487790503431124	1.14722398845711	1.147223988457525	-0.2186761664323875	1.414503751711064e-05	0.5683914265130906	0.1635218271164123	-0.02437085159767559	0.002135185863242181	0.004217154546125447	-0.3075685972822788	-0.02006914053783574	-0.01329923672101834	0.1059920104282982	-37.02080962918575	-49.8966602253391	-10.66126885975087	-2.23925445729305	14.50456571134805	-692.2995120019415	51.30524912208709	-0.1353124870560092	0.003013595020251212	-0.05723104908018858	-0.6810972821123452	-0.05672751724799666	-0.4469324158957919	1.115465954759569	-1.452712727306218	-1.452712727306308	0.3888473310010292	-0.0128032090649494	-0.7693124336374904	-0.1703599164182698	-4.659316001721114e-08	-3.400202219521505e-08	4.064394962797026e-07	-4.620923272915274e-07	-2.621027325199715e-08	-5.823503142576475e-09	5.71150639865636e-07
0.5700000000000001	0.004614983204929697	0.1048463969541108	0.8918268282671616	0.4613856754038401	-0.2259849775943843	-0.1567921428978782	-0.3304531897656875	0.6017521139836985	0.6017521139837667	0.04256814066509353	0.174516391870969	0.3071401879801185	0.07612863397394314	0.008050007792112549	0.01203466355746045	-0.1751734674441467	0.6321413253336853	-0.01114505758959165	0.1550610788931229	-0.5373589427747577	1.132276802418051	1.132276802418176	-0.214607903431886	-4.544672459163104e-05	0.5604810399971056	0.1616532853409656	-0.02723249511953749	0.003623686481564467	0.004640365535012432	-0.3095232791898406	-0.02464517771274271	-0.01263410349985141	0.1089766533674499	-36.49713999145047	-51.42622953163996	-10.72521450049814	-2.131973230559385	15.0210909170612	-694.134879185222	51.1457142546052	-0.1464866085522854	0.003087558152407024	-0.03382062545995775	-0.7200745612021634	-0.06338568729114083	-0.4451211320005611	1.164797169352896	-1.539178657452728	-1.539178657495899	0.416276957724715	-0.001590224633157996	-0.8123980184104187	-0.1979341428865068	-4.245929515920776e-08	-3.103651738960988e-08	3.629321434933353e-07	-4.33617957437539e-07	-2.37186683599862e-08	-1.250608020269172e-09	5.255934892035173e-07
0.58	0.004688310495073482	0.1049668996284653	0.8900738796907974	0.4676699797302826	-0.2260993352533024	-0.1552640558808829	-0.3357680929870126	0.6129962368544338	0.6129962368542812	0.04044248054059207	0.1745157950102725	0.3127036968326593	0.07773535223474186	0.006613750002178541	0.01206605802899967	-0.1753728784588415	0.6246318306576335	-0.0117184971410971	0.1505450263596883	-0.5255582747472607	1.11639133176912	1.116391331768957	-0.2105211935053818	-6.716108067379245e-05	0.5521508031678664	0.1596714301743746	-0.03009413864141678	0.005112187099829912	0.005063576524210097	-0.3114779610974168	-0.0292212148876746	-0.01196897027878147	0.1119612963066	-35.96282167107751	-52.96568954916218	-10.78803466394607	-2.028135326903679	15.54603121403982	-696.1249956908881	51.03012494395911	-0.1373857933117115	0.003197299124623051	-0.005191852601067126	-0.7863788807519982	-0.04755389614611081	-0.4610452800022232	1.191578046588019	-1.640369649280632	-1.640369649280645	0.3925367162016104	-0.005227727859566144	-0.8532824962882969	-0.1930225946471599	-3.799942598557461e-08	-2.862684767964252e-08	3.121905228451576e-07	-4.093163869201656e-07	-2.02547947527279e-08	1.694617591818233e-09	4.792930246026166e-07
